# xmcd CD database file
#
# Track frame offsets:
#	150
#	20414
#	34655
#	61796
#	74459
#	88793
#	104020
#	118621
#	138122
#	153039
#	168173
#	190962
#	219469
#	232207
#	247813
#	263341
#	281831
#	301094
#	323251
#
# Disc length: 4487 seconds
#
# Revision: 0
# Processed by: cddbd v1.5.2PL0 Copyright (c) Steve Scherf et al.
# Submitted via: CDex 1.51
#
DISCID=f7118513
DTITLE=Chris - Unknown Chinese Titel
DYEAR=2010
DGENRE=Jazz
TTITLE0=No Regret
TTITLE1=In That Yinseyueguang Under
TTITLE2=In That Distant Place
TTITLE3=Kangding Love Song
TTITLE4=Jasmine
TTITLE5=Continue Journey
TTITLE6=Acacia Sur
TTITLE7=Evening Primrose
TTITLE8=Spring Breeze In My Face Snout
TTITLE9=Everlasting Love
TTITLE10=We'd Met When I Was Single
TTITLE11=Lover's Tears
TTITLE12=Tonight Duo Zhenzhong
TTITLE13=About Winter
TTITLE14=Disturbance Of The Heart
TTITLE15=Do You Still Love Me Tomorrow
TTITLE16=Opportunities
TTITLE17=Wandering Songstress
TTITLE18=Moon Send Acacia Trinidad
EXTD=YEAR: 2010
EXTT0=
EXTT1=
EXTT2=
EXTT3=
EXTT4=
EXTT5=
EXTT6=
EXTT7=
EXTT8=
EXTT9=
EXTT10=
EXTT11=
EXTT12=
EXTT13=
EXTT14=
EXTT15=
EXTT16=
EXTT17=
EXTT18=
PLAYORDER=
